<?xml version="1.0" standalone="no"?>
<!DOCTYPE svg PUBLIC "-//W3C//DTD SVG 20010904//EN"
 "http://www.w3.org/TR/2001/REC-SVG-20010904/DTD/svg10.dtd">
<svg version="1.0" xmlns="http://www.w3.org/2000/svg"
 width="48.000000pt" height="48.000000pt" viewBox="0 0 48.000000 48.000000"
 preserveAspectRatio="xMidYMid meet">

<g transform="translate(0.000000,48.000000) scale(0.100000,-0.100000)"
fill="#000000" stroke="none">
<path d="M74 408 c3 -13 10 -88 17 -168 6 -80 12 -145 13 -146 0 -1 31 -10 69
-21 l67 -21 70 21 c58 17 70 24 70 41 0 26 18 240 24 284 l5 32 -170 0 -169 0
4 -22z m295 -40 c0 -18 -6 -82 -12 -142 l-12 -109 -45 -13 c-58 -18 -60 -17
-60 4 0 13 -12 22 -40 31 -35 10 -40 16 -40 41 0 23 5 30 19 30 10 0 21 -7 25
-15 9 -25 36 -18 36 10 0 20 -5 25 -25 25 -18 0 -25 5 -25 20 0 15 7 20 25 20
18 0 25 5 25 20 0 17 -7 20 -45 20 -38 0 -45 3 -45 20 0 17 7 20 45 20 41 0
45 2 45 25 0 24 2 25 65 25 l65 0 -1 -32z"/>
</g>
</svg>
