<?xml version="1.0" standalone="no"?>
<!DOCTYPE svg PUBLIC "-//W3C//DTD SVG 20010904//EN"
 "http://www.w3.org/TR/2001/REC-SVG-20010904/DTD/svg10.dtd">
<svg version="1.0" xmlns="http://www.w3.org/2000/svg"
 width="48.000000pt" height="48.000000pt" viewBox="0 0 48.000000 48.000000"
 preserveAspectRatio="xMidYMid meet">

<g transform="translate(0.000000,48.000000) scale(0.100000,-0.100000)"
fill="#000000" stroke="none">
<path d="M74 413 c2 -10 10 -86 17 -169 l12 -152 58 -16 c73 -20 89 -20 159 0
l57 16 12 151 c7 84 15 160 17 170 5 16 -8 17 -166 17 -158 0 -171 -1 -166
-17z m292 -100 c-4 -49 -9 -113 -12 -144 l-6 -55 -44 -12 c-59 -16 -64 -15
-64 6 0 13 -12 22 -40 31 -22 6 -40 18 -40 26 0 7 -3 20 -6 29 -5 12 0 16 19
16 14 0 27 -7 31 -15 9 -25 36 -18 36 10 0 23 -4 25 -45 25 l-45 0 0 60 0 60
45 0 c41 0 45 2 45 25 0 24 2 25 66 25 l67 0 -7 -87z"/>
<path d="M197 290 c3 -11 14 -20 24 -20 12 0 19 7 19 20 0 14 -7 20 -24 20
-19 0 -23 -4 -19 -20z"/>
</g>
</svg>
