<?xml version="1.0" standalone="no"?>
<!DOCTYPE svg PUBLIC "-//W3C//DTD SVG 20010904//EN"
 "http://www.w3.org/TR/2001/REC-SVG-20010904/DTD/svg10.dtd">
<svg version="1.0" xmlns="http://www.w3.org/2000/svg"
 width="48.000000pt" height="48.000000pt" viewBox="0 0 48.000000 48.000000"
 preserveAspectRatio="xMidYMid meet">

<g transform="translate(0.000000,48.000000) scale(0.100000,-0.100000)"
fill="#000000" stroke="none">
<path d="M220 199 c0 -60 0 -61 -25 -57 -30 6 -42 -7 -25 -27 15 -18 52 -19
68 -3 7 7 12 40 12 80 0 54 -3 68 -15 68 -12 0 -15 -13 -15 -61z"/>
<path d="M292 248 c-22 -22 -14 -58 18 -76 16 -9 30 -23 30 -29 0 -15 -22 -17
-36 -3 -6 6 -15 6 -24 -1 -13 -8 -12 -11 4 -24 24 -18 67 -20 84 -3 24 24 14
58 -23 79 -40 24 -47 44 -11 35 28 -7 40 2 25 21 -14 16 -51 17 -67 1z"/>
</g>
</svg>
