<?xml version="1.0" encoding="UTF-8"?>
<svg version="1.1" xmlns="http://www.w3.org/2000/svg" width="48" height="48">
<path d="M0 0 C11.88 0 23.76 0 36 0 C36 11.88 36 23.76 36 36 C24.12 36 12.24 36 0 36 C0 24.12 0 12.24 0 0 Z " fill="#FDD400" transform="translate(6,6)"/>
<path d="M0 0 C1.2375 0.1546875 1.2375 0.1546875 2.5 0.3125 C3.16 1.3025 3.82 2.2925 4.5 3.3125 C1.5 4.3125 1.5 4.3125 -1.5 3.3125 C0.1580553 5.05345806 1.64000404 6.40050254 3.6875 7.6875 C5.5 9.3125 5.5 9.3125 5.9375 11.875 C5.793125 12.679375 5.64875 13.48375 5.5 14.3125 C1.6496895 16.87937367 -0.08569763 16.14538724 -4.5 15.3125 C-4.83 14.3225 -5.16 13.3325 -5.5 12.3125 C-2.5 11.3125 -2.5 11.3125 -0.3125 12.25 C0.285625 12.600625 0.88375 12.95125 1.5 13.3125 C1.5 12.3225 1.5 11.3325 1.5 10.3125 C0.695625 10.003125 -0.10875 9.69375 -0.9375 9.375 C-3.5 8.3125 -3.5 8.3125 -4.5 7.3125 C-4.6875 4.875 -4.6875 4.875 -4.5 2.3125 C-2.5 0.3125 -2.5 0.3125 0 0 Z " fill="#1A1500" transform="translate(32.5,21.6875)"/>
<path d="M0 0 C0.99 0 1.98 0 3 0 C3.05384521 2.29141286 3.09272087 4.58318188 3.125 6.875 C3.14820313 8.15117187 3.17140625 9.42734375 3.1953125 10.7421875 C3 14 3 14 1 16 C-1.625 16.125 -1.625 16.125 -4 16 C-4.66 14.68 -5.32 13.36 -6 12 C-4.33333333 12 -2.66666667 12 -1 12 C-0.67 8.04 -0.34 4.08 0 0 Z " fill="#070601" transform="translate(22,22)"/>
<path d="M0 0 C3 3 3 3 3.9375 5.5625 C4.78929161 8.14871695 4.78929161 8.14871695 7.125 9.3125 C7.74375 9.539375 8.3625 9.76625 9 10 C9 10.99 9 11.98 9 13 C8.2575 12.814375 7.515 12.62875 6.75 12.4375 C3.77159084 11.77947289 3.77159084 11.77947289 0 13 C0 8.71 0 4.42 0 0 Z " fill="#E2BD00" transform="translate(25,22)"/>
</svg>
