<?xml version="1.0" encoding="UTF-8"?>
<svg version="1.1" xmlns="http://www.w3.org/2000/svg" width="24" height="24">
<path d="M0 0 C0.639375 0.33 1.27875 0.66 1.9375 1 C6.61975693 2.52890022 11.69380903 3.02848997 16.27734375 0.984375 C16.84582031 0.65953125 17.41429688 0.3346875 18 0 C17.67 0.66 17.34 1.32 17 2 C16.06649519 4.80051442 15.94108013 6.26371447 16.0625 9.125 C16 13 16 13 14.7734375 14.73828125 C12.50882171 16.34945064 11.30618482 16.25219828 8.5625 16.0625 C5.04925837 15.83066172 3.056015 16.21094338 0 18 C0.33 17.360625 0.66 16.72125 1 16.0625 C2.52890022 11.38024307 3.02848997 6.30619097 0.984375 1.72265625 C0.65953125 1.15417969 0.3346875 0.58570313 0 0 Z " fill="#FED247" transform="translate(3,3)"/>
<path d="M0 0 C0.99 0.495 0.99 0.495 2 1 C5.86061033 2.28687011 8.94150283 2.13757618 13 2 C13 2.33 13 2.66 13 3 C11.9275 3.103125 10.855 3.20625 9.75 3.3125 C6.14179128 3.97400493 4.63604977 4.57483421 2 7 C1.855625 6.401875 1.71125 5.80375 1.5625 5.1875 C1.1127561 3.43849596 0.57107659 1.71322977 0 0 Z " fill="#FFD757" transform="translate(3,3)"/>
<path d="M0 0 C1.485 0.99 1.485 0.99 3 2 C3 2.66 3 3.32 3 4 C1.68 3.34 0.36 2.68 -1 2 C-0.67 1.34 -0.34 0.68 0 0 Z " fill="#FFCC36" transform="translate(18,17)"/>
<path d="M0 0 C0.66 0 1.32 0 2 0 C2 1.32 2 2.64 2 4 C1.34 4 0.68 4 0 4 C0 2.68 0 1.36 0 0 Z " fill="#FFD03F" transform="translate(11,20)"/>
<path d="M0 0 C1.32 0 2.64 0 4 0 C4 0.66 4 1.32 4 2 C2.68 2 1.36 2 0 2 C0 1.34 0 0.68 0 0 Z " fill="#FFCE37" transform="translate(20,11)"/>
<path d="M0 0 C1.32 0 2.64 0 4 0 C4 0.66 4 1.32 4 2 C2.68 2 1.36 2 0 2 C0 1.34 0 0.68 0 0 Z " fill="#FFD554" transform="translate(0,11)"/>
<path d="M0 0 C0.66 0 1.32 0 2 0 C2 1.32 2 2.64 2 4 C1.34 4 0.68 4 0 4 C0 2.68 0 1.36 0 0 Z " fill="#FFD34D" transform="translate(11,0)"/>
</svg>
